<svg width="256" height="256" viewBox="0 0 256 256" fill="none" xmlns="http://www.w3.org/2000/svg">
  <rect width="256" height="256" rx="58" fill="#0a0a0a"/>
  <rect x="9" y="9" width="238" height="238" rx="53" stroke="#00ff88" stroke-width="2" opacity="0.48"/>
  <path d="M34 132C45 73 91 56 119 67C142 76 151 102 132 123C159 125 173 144 167 169C159 204 105 215 54 190" stroke="#00ff88" stroke-width="18" stroke-linecap="round" stroke-linejoin="round"/>
  <path d="M132 123L105 70" stroke="#00ff88" stroke-width="16" stroke-linecap="round"/>
  <path d="M132 123L49 72" stroke="#00ff88" stroke-width="6" stroke-linecap="round" opacity="0.28"/>
  <path d="M176 70C214 106 214 150 176 190" stroke="#00ff88" stroke-width="18" stroke-linecap="round"/>
  <path d="M226 70C188 106 188 150 226 190" stroke="#00ff88" stroke-width="18" stroke-linecap="round"/>
  <path d="M176 70H226" stroke="#00ff88" stroke-width="9" stroke-linecap="round" opacity="0.38"/>
  <path d="M176 190H226" stroke="#00ff88" stroke-width="9" stroke-linecap="round" opacity="0.38"/>
  <circle cx="132" cy="123" r="7" fill="#00ff88"/>
  <circle cx="201" cy="123" r="7" fill="#00ff88"/>
  <circle cx="132" cy="123" r="15" fill="#00ff88" opacity="0.12"/>
  <circle cx="201" cy="123" r="15" fill="#00ff88" opacity="0.12"/>
</svg>
