<?xml version="1.0" encoding="UTF-8"?>
<svg version="1.1" xmlns="http://www.w3.org/2000/svg" width="192" height="192">
<path d="M0 0 C2.19228693 0.0084963 4.3819438 -0.0203401 6.57397461 -0.05200195 C31.08039567 -0.17530102 53.23125869 10.36904688 70.98608398 26.94213867 C89.34092368 46.04189881 99.07503441 69.57633333 98.89233398 96.07104492 C98.89023926 96.77092529 98.88814453 97.47080566 98.88598633 98.19189453 C98.74054387 121.83168104 91.40814072 141.20866511 76.39233398 159.44604492 C75.80709961 160.18338867 75.22186523 160.92073242 74.61889648 161.68041992 C63.62105027 175.00175477 47.71236822 184.2189008 31.39233398 189.44604492 C30.5524292 189.71602295 29.71252441 189.98600098 28.84716797 190.26416016 C20.83090722 192.56241413 13.05598217 192.94075003 4.78466797 192.89208984 C2.59238104 192.88359355 0.40272416 192.91242995 -1.78930664 192.9440918 C-26.29572771 193.06739087 -48.44659072 182.52304296 -66.20141602 165.94995117 C-84.74759094 146.65109058 -94.28499146 122.94869882 -94.10766602 96.25854492 C-94.10557129 95.53337677 -94.10347656 94.80820862 -94.10131836 94.06106567 C-94.03308928 82.59084127 -93.16052095 72.08633471 -88.60766602 61.44604492 C-88.31827148 60.75816895 -88.02887695 60.07029297 -87.73071289 59.36157227 C-83.57017292 49.76185503 -78.26135867 41.52725709 -71.60766602 33.44604492 C-71.02243164 32.70870117 -70.43719727 31.97135742 -69.83422852 31.21166992 C-58.83638231 17.89033508 -42.92770025 8.67318905 -26.60766602 3.44604492 C-25.76776123 3.17606689 -24.92785645 2.90608887 -24.0625 2.62792969 C-16.04623925 0.32967571 -8.2713142 -0.04866019 0 0 Z " fill="#FDDD01" transform="translate(93.607666015625,-0.446044921875)"/>
<path d="M0 0 C10.29002697 6.25317023 15.76390183 14.54919111 19 26 C19 29.96 19 33.92 19 38 C-0.47 38 -19.94 38 -40 38 C-35.30526197 46.45052845 -32.19826526 51.52869011 -23.125 54.484375 C-15.16825607 56.41505551 -10.21328455 54.54763862 -3.1875 50.5078125 C-0.89118088 49.18454954 -0.89118088 49.18454954 0 47 C4.95 47 9.9 47 15 47 C13.31226913 53.75092349 8.19655801 58.89968191 2.42578125 62.69140625 C-0.01338503 63.94273964 -2.44252866 65.0156959 -5 66 C-6.093125 66.433125 -7.18625 66.86625 -8.3125 67.3125 C-19.68441742 69.43268799 -29.03499595 68.00748078 -38.75 61.75 C-46.10477267 56.07384603 -51.23374295 47.09295298 -53 38 C-54.16286423 25.75312609 -51.56773209 17.91685145 -44.8125 7.6875 C-31.94970446 -4.60361574 -16.23900563 -7.71011612 0 0 Z " fill="#050500" transform="translate(77,64)"/>
<path d="M0 0 C0.66 0 1.32 0 2 0 C3.41235352 1.43798828 3.41235352 1.43798828 5.06640625 3.4453125 C9.81128372 9.02795547 15.05088639 14.06717733 20.29882812 19.171875 C21.03423828 19.89632812 21.76964844 20.62078125 22.52734375 21.3671875 C23.52882446 22.34341064 23.52882446 22.34341064 24.55053711 23.33935547 C26 25 26 25 26 27 C29.33849566 24.39434485 32.26535953 21.79814331 35 18.5625 C40.58340149 11.99155811 46.86955255 6.05392314 53 0 C54.12894876 0.93274109 55.25300876 1.87140122 56.375 2.8125 C57.00148438 3.33457031 57.62796875 3.85664062 58.2734375 4.39453125 C60 6 60 6 62 9 C61.50371094 9.4846875 61.00742188 9.969375 60.49609375 10.46875 C57.0793784 13.84008203 53.74540187 17.22584268 50.625 20.875 C46.35430645 25.84921847 41.67522621 30.40943584 37 35 C38.39833601 38.17306293 40.04097227 40.26758379 42.51953125 42.6796875 C43.21240234 43.36160156 43.90527344 44.04351562 44.61914062 44.74609375 C45.70485352 45.79990234 45.70485352 45.79990234 46.8125 46.875 C54.86580022 54.73152275 54.86580022 54.73152275 57.88671875 58.4453125 C59.74330246 61.04004002 59.74330246 61.04004002 62 62 C60.61811547 65.21043882 59.07578097 67.04936365 56.375 69.25 C55.74335938 69.77078125 55.11171875 70.2915625 54.4609375 70.828125 C53.97882813 71.21484375 53.49671875 71.6015625 53 72 C49.95409841 68.98341194 46.91406781 65.96097142 43.875 62.9375 C43.0190625 62.08994141 42.163125 61.24238281 41.28125 60.36914062 C36.6316068 55.73738067 32.18507173 51.05638995 28 46 C24.68268315 47.10577228 23.99431126 47.90545835 21.82421875 50.52734375 C17.98598667 55.0454624 13.96067912 59.3286308 9.8125 63.5625 C8.76545898 64.66561523 8.76545898 64.66561523 7.69726562 65.79101562 C7.01986328 66.48001953 6.34246094 67.16902344 5.64453125 67.87890625 C4.73731323 68.81585327 4.73731323 68.81585327 3.81176758 69.77172852 C2 71 2 71 -0.12133789 70.796875 C-2.52776073 69.77613892 -3.62452433 68.46934459 -5.25 66.4375 C-5.77078125 65.79683594 -6.2915625 65.15617187 -6.828125 64.49609375 C-7.21484375 64.00238281 -7.6015625 63.50867188 -8 63 C-7.28714844 62.29875 -6.57429688 61.5975 -5.83984375 60.875 C-0.92069535 56.01092953 3.86980856 51.12533331 8.36328125 45.859375 C11.09271848 42.75863008 14.04000663 39.87902091 17 37 C15.5158627 33.51345524 13.53785948 31.35808928 10.8125 28.75 C7.25383938 25.27674723 3.94182473 21.70235063 0.70703125 17.9296875 C-2.05221581 14.81053864 -5.01587975 11.90248778 -8 9 C-7.04270084 7.87411986 -6.08412105 6.7493285 -5.125 5.625 C-4.59132813 4.99851562 -4.05765625 4.37203125 -3.5078125 3.7265625 C-2.38567993 2.44163349 -1.20628025 1.20628025 0 0 Z " fill="#070600" transform="translate(106,60)"/>
<path d="M0 0 C3.66587107 2.6815168 6.5552559 5.73282373 8.53125 9.8515625 C8.53125 11.1715625 8.53125 12.4915625 8.53125 13.8515625 C-6.31875 13.8515625 -21.16875 13.8515625 -36.46875 13.8515625 C-34.16462747 6.93919491 -31.48160626 2.22219376 -25.1015625 -1.546875 C-15.6600729 -5.69407137 -8.87766928 -5.26176466 0 0 Z " fill="#F4D501" transform="translate(73.46875,76.1484375)"/>
<path d="M0 0 C0.66 0.33 1.32 0.66 2 1 C-0.97 3.97 -3.94 6.94 -7 10 C-7.66 9.67 -8.32 9.34 -9 9 C-6.21000549 5.51250686 -3.74764169 2.49842779 0 0 Z " fill="#262100" transform="translate(39,66)"/>
</svg>
