<?xml version="1.0" encoding="UTF-8"?>
<svg version="1.1" xmlns="http://www.w3.org/2000/svg" width="225" height="225">
<path d="M0 0 C74.25 0 148.5 0 225 0 C225 74.25 225 148.5 225 225 C150.75 225 76.5 225 0 225 C0 150.75 0 76.5 0 0 Z " fill="#044855" transform="translate(0,0)"/>
<path d="M0 0 C4.20686484 -0.29133413 8.41114261 -0.46826779 12.625 -0.625 C14.40970703 -0.75068359 14.40970703 -0.75068359 16.23046875 -0.87890625 C24.78245389 -1.11778852 24.78245389 -1.11778852 27.88916016 1.734375 C29.52537904 4.4082909 30.7497607 7.12493954 32 10 C32.94209559 11.77263707 33.88514589 13.54486822 34.84815979 15.30622864 C35.90448365 17.24285613 36.93728565 19.19040809 37.96411133 21.14282227 C40.18422889 25.36309139 42.41282926 29.57881496 44.64453125 33.79296875 C45.01593735 34.49465683 45.38734344 35.19634491 45.77000427 35.91929626 C49.07514292 42.15683069 52.42838276 48.36744296 55.8125 54.5625 C56.28510254 55.42842773 56.75770508 56.29435547 57.24462891 57.18652344 C57.68597168 57.99250977 58.12731445 58.79849609 58.58203125 59.62890625 C58.9888916 60.3780127 59.39575195 61.12711914 59.81494141 61.89892578 C60.58495077 63.26412986 61.39319307 64.60870054 62.24365234 65.92529297 C63.96417095 68.61888575 64.98479309 70.56569073 65.09765625 73.7890625 C63.44091946 78.6354598 60.97260811 82.93776958 58.4375 87.375 C57.91736328 88.30183594 57.39722656 89.22867188 56.86132812 90.18359375 C55.58212166 92.46034654 54.29487762 94.73213523 53 97 C49.76646037 93.21929439 47.36764746 89.24672698 45.09375 84.84765625 C44.73251038 84.1598558 44.37127075 83.47205536 43.99908447 82.76341248 C43.22785137 81.29383355 42.4589715 79.82301761 41.69226074 78.35107422 C39.67541652 74.47969145 37.64108219 70.61750308 35.609375 66.75390625 C35.20841614 65.99022736 34.80745728 65.22654846 34.39434814 64.43972778 C31.23556914 58.42884183 28.01778924 52.45238812 24.75 46.5 C20.32643169 38.43149182 15.93109259 30.34843535 11.5625 22.25 C10.69286621 20.6422168 10.69286621 20.6422168 9.80566406 19.00195312 C6.42160228 12.72261659 3.14517136 6.40244784 0 0 Z " fill="#FBFCFC" transform="translate(60,64)"/>
<path d="M0 0 C22.77 0 45.54 0 69 0 C63.96152127 10.07695746 58.90014581 20.08652707 53.5625 30 C52.90995945 31.21604619 52.25745336 32.43211087 51.60498047 33.64819336 C47.66791756 40.97303421 43.67711719 48.26484334 39.52563477 55.47070312 C38.09111858 57.97267542 36.91592459 60.25222622 36 63 C35.34 63 34.68 63 34 63 C34.07444336 61.79053711 34.14888672 60.58107422 34.22558594 59.33496094 C36.34206064 37.98940709 36.34206064 37.98940709 31.19921875 17.96191406 C26.71000613 13.71111817 21.395974 11.69321051 15.5625 9.87548828 C11.75162065 8.57348625 8.58881067 6.5239575 5.25 4.3125 C4.22390625 3.68988281 3.1978125 3.06726563 2.140625 2.42578125 C1.43421875 1.95527344 0.7278125 1.48476562 0 1 C0 0.67 0 0.34 0 0 Z " fill="#DF562A" transform="translate(96,64)"/>
</svg>
