<?xml version="1.0" encoding="UTF-8"?>
<svg version="1.1" xmlns="http://www.w3.org/2000/svg" width="512" height="512">
<path d="M0 0 C168.96 0 337.92 0 512 0 C512 168.96 512 337.92 512 512 C343.04 512 174.08 512 0 512 C0 343.04 0 174.08 0 0 Z " fill="#000000" transform="translate(0,0)"/>
<path d="M0 0 C1.55226036 -0.03986526 1.55226036 -0.03986526 3.13587952 -0.08053589 C6.55761369 -0.15792261 9.9776469 -0.18911653 13.40014648 -0.21337891 C15.78564323 -0.24282827 18.17113618 -0.27258746 20.55662537 -0.30264282 C25.56097221 -0.35663732 30.56472476 -0.38372234 35.56933594 -0.39648438 C41.96158452 -0.41818223 48.3474846 -0.54142402 54.73787022 -0.68991661 C59.66854119 -0.78702531 64.59770394 -0.81154969 69.52924919 -0.81660843 C71.88369682 -0.83101307 74.23814431 -0.87174958 76.59164619 -0.94001389 C94.50203462 -1.41964467 94.50203462 -1.41964467 99.86140823 2.51577568 C103.54980641 6.26275495 106.20810695 10.46779203 108.67831707 15.08506966 C110.01525647 17.48536808 111.65575992 19.53119379 113.44311523 21.61083984 C113.95076416 22.22572266 114.45841309 22.84060547 114.98144531 23.47412109 C115.46895264 24.05935547 115.95645996 24.64458984 116.45874023 25.24755859 C121.45456562 31.31676159 126.19342532 37.49630138 130.70874023 43.93505859 C134.64280171 42.62370477 135.55374887 40.81934109 138.02124023 37.49755859 C138.90978465 36.31468174 139.7991558 35.1324256 140.68920898 33.95068359 C141.1705127 33.30808594 141.65181641 32.66548828 142.14770508 32.00341797 C145.00283432 28.22039404 147.92083133 24.48615554 150.83374023 20.74755859 C151.43186523 19.97879395 152.02999023 19.2100293 152.64624023 18.41796875 C164.69246609 2.95133274 164.69246609 2.95133274 166.70874023 0.93505859 C168.33548801 0.84165426 169.96628075 0.81760688 171.59570312 0.8215332 C172.6367067 0.82160873 173.67771027 0.82168427 174.7502594 0.82176208 C175.88253464 0.82692337 177.01480988 0.83208466 178.18139648 0.83740234 C179.33417587 0.83881729 180.48695526 0.84023224 181.67466736 0.84169006 C185.37355087 0.84730854 189.07237487 0.85986418 192.77124023 0.87255859 C195.2718904 0.87757121 197.77254152 0.88213453 200.27319336 0.88623047 C206.41839612 0.89728397 212.56356393 0.91404007 218.70874023 0.93505859 C218.80765501 4.70429423 218.78614861 6.46636696 216.28686523 9.36083984 C215.49989258 10.29573242 215.49989258 10.29573242 214.69702148 11.24951172 C214.12338867 11.90886719 213.54975586 12.56822266 212.95874023 13.24755859 C211.75296401 14.67892315 210.54990309 16.11257884 209.34936523 17.54833984 C208.73770508 18.27746582 208.12604492 19.0065918 207.49584961 19.7578125 C204.78201717 23.06409087 202.24353751 26.4907815 199.70874023 29.93505859 C195.16185054 36.08147376 190.41946654 42.03032731 185.56420898 47.93505859 C181.81822109 52.51249488 178.22770481 57.18137979 174.70874023 61.93505859 C170.10935971 68.14642842 165.32236187 74.17096394 160.42358398 80.14819336 C154.17147936 87.78621866 148.18954238 95.62233899 142.27124023 103.52099609 C141.68084961 104.30418213 141.09045898 105.08736816 140.48217773 105.89428711 C139.31524781 107.44275042 138.15362852 108.9952326 136.99780273 110.55200195 C136.2050293 111.60206421 136.2050293 111.60206421 135.39624023 112.67333984 C134.69047852 113.61753784 134.69047852 113.61753784 133.97045898 114.58081055 C133.5540918 115.0277124 133.13772461 115.47461426 132.70874023 115.93505859 C132.04874023 115.93505859 131.38874023 115.93505859 130.70874023 115.93505859 C129.32958347 114.28007048 128.03223636 112.55675485 126.77124023 110.81005859 C125.95893532 109.69958687 125.14506797 108.59025678 124.32983398 107.48193359 C123.9017041 106.89863281 123.47357422 106.31533203 123.0324707 105.71435547 C120.85425985 102.78650583 118.59609323 99.92309697 116.33374023 97.06005859 C115.87805664 96.48247803 115.42237305 95.90489746 114.95288086 95.30981445 C114.01786935 94.1251941 113.08248195 92.94087033 112.14672852 91.75683594 C109.22704341 88.05790721 106.3212289 84.34805618 103.41235352 80.640625 C100.86082769 77.39173991 98.28952442 74.16103883 95.70874023 70.93505859 C95.37874023 100.63505859 95.04874023 130.33505859 94.70874023 160.93505859 C68.7850798 161.25592907 68.7850798 161.25592907 57.72631836 161.32568359 C50.18297253 161.37348979 42.64040425 161.43001381 35.09765625 161.53857422 C29.01568148 161.62556138 22.93454052 161.67334649 16.85199165 161.69407654 C14.53266841 161.70884729 12.21339033 161.7376923 9.89442253 161.78089905 C6.64264581 161.83907074 3.394304 161.8469678 0.14208984 161.84326172 C-0.81457077 161.87202393 -1.77123138 161.90078613 -2.75688171 161.93041992 C-6.72809881 161.88152026 -9.27089952 161.77252948 -12.40742302 159.19819641 C-14.18879242 157.18495808 -15.75842475 155.14116835 -17.29125977 152.93505859 C-18.07629883 151.94763672 -18.86133789 150.96021484 -19.67016602 149.94287109 C-20.39075195 148.99154297 -21.11133789 148.04021484 -21.85375977 147.06005859 C-22.700971 145.94904202 -23.54865701 144.83838739 -24.39672852 143.72802734 C-24.85225098 143.13038574 -25.30777344 142.53274414 -25.77709961 141.91699219 C-28.72561217 138.05758797 -31.69393289 134.21363614 -34.66625977 130.37255859 C-35.26124268 129.5986377 -35.85622559 128.8247168 -36.46923828 128.02734375 C-39.23900626 124.45144633 -41.96601814 121.02278296 -45.29125977 117.93505859 C-51.86868956 126.10598942 -58.38539003 134.31162087 -64.76000977 142.64208984 C-67.59780344 146.34410014 -70.47286059 150.01654174 -73.35375977 153.68505859 C-74.0702771 154.59880249 -74.0702771 154.59880249 -74.80126953 155.53100586 C-78.16696069 159.81075951 -78.16696069 159.81075951 -79.29125977 160.93505859 C-81.00991385 161.02865049 -82.7324172 161.0525047 -84.45361328 161.04858398 C-85.55467911 161.04850845 -86.65574493 161.04843292 -87.79017639 161.0483551 C-88.98807297 161.04319382 -90.18596954 161.03803253 -91.42016602 161.03271484 C-92.63953354 161.0312999 -93.85890106 161.02988495 -95.11521912 161.02842712 C-99.02809046 161.02280826 -102.94090558 161.01025256 -106.85375977 160.99755859 C-109.49894123 160.99254602 -112.14412359 160.9879827 -114.78930664 160.98388672 C-121.28997702 160.97283271 -127.79061438 160.95607623 -134.29125977 160.93505859 C-132.88996162 158.05686402 -131.40048418 155.61952603 -129.42016602 153.09912109 C-128.56708862 152.00809082 -128.56708862 152.00809082 -127.69677734 150.89501953 C-126.78448364 149.73921387 -126.78448364 149.73921387 -125.85375977 148.56005859 C-125.2255835 147.75858398 -124.59740723 146.95710937 -123.95019531 146.13134766 C-122.06705988 143.73006929 -120.17943715 141.33237316 -118.29125977 138.93505859 C-117.29612211 137.66710089 -116.3012994 136.39889591 -115.30688477 135.13037109 C-112.20228579 131.17192445 -109.09014079 127.21943687 -105.9777832 123.26708984 C-98.04215349 113.18748911 -90.16106652 103.06610901 -82.29125977 92.93505859 C-75.37011578 84.02525167 -68.44585344 75.11854093 -61.4675293 66.25341797 C-55.97863924 59.27517054 -50.53634303 52.26066699 -45.08959961 45.24951172 C-41.58228412 40.73561668 -38.07221956 36.22385842 -34.56176758 31.71240234 C-31.52960574 27.81512737 -28.5001937 23.9157571 -25.47485352 20.01318359 C-24.84772461 19.20494141 -24.2205957 18.39669922 -23.57446289 17.56396484 C-22.38088551 16.02557621 -21.18812132 14.48655616 -19.99633789 12.94677734 C-19.45299805 12.24681641 -18.9096582 11.54685547 -18.34985352 10.82568359 C-17.87862061 10.21756836 -17.4073877 9.60945312 -16.921875 8.98291016 C-16.11472046 7.96922363 -16.11472046 7.96922363 -15.29125977 6.93505859 C-14.64488556 5.92210724 -13.99851135 4.90915588 -13.33255005 3.86550903 C-9.69768091 -0.44296713 -5.30781616 0.01944678 0 0 Z " fill="#FCFCFC" transform="translate(230.291259765625,175.06494140625)"/>
<path d="M0 0 C17.16 0 34.32 0 52 0 C55.96 5.28 59.92 10.56 64 16 C66.23148319 18.79402237 68.46295243 21.56698462 70.75 24.3125 C75.74582538 30.38170299 80.48468509 36.56124278 85 43 C88.93406147 41.68864618 89.84500863 39.8842825 92.3125 36.5625 C93.20104442 35.37962314 94.09041557 34.19736701 94.98046875 33.015625 C95.46177246 32.37302734 95.94307617 31.73042969 96.43896484 31.06835938 C99.29409409 27.28533545 102.2120911 23.55109695 105.125 19.8125 C105.723125 19.04373535 106.32125 18.2749707 106.9375 17.48291016 C118.98372586 2.01627414 118.98372586 2.01627414 121 0 C122.62674778 -0.09340434 124.25754051 -0.11745171 125.88696289 -0.11352539 C126.92796646 -0.11344986 127.96897003 -0.11337433 129.04151917 -0.11329651 C130.1737944 -0.10813522 131.30606964 -0.10297394 132.47265625 -0.09765625 C133.62543564 -0.0962413 134.77821503 -0.09482635 135.96592712 -0.09336853 C139.66481064 -0.08775005 143.36363464 -0.07519442 147.0625 -0.0625 C149.56315017 -0.05748738 152.06380129 -0.05292406 154.56445312 -0.04882812 C160.70965588 -0.03777462 166.85482369 -0.02101852 173 0 C173.09891478 3.76923564 173.07740837 5.53130837 170.578125 8.42578125 C170.05347656 9.04904297 169.52882813 9.67230469 168.98828125 10.31445312 C168.41464844 10.97380859 167.84101563 11.63316406 167.25 12.3125 C166.04422377 13.74386456 164.84116285 15.17752024 163.640625 16.61328125 C163.02896484 17.34240723 162.41730469 18.0715332 161.78710938 18.82275391 C159.07327694 22.12903227 156.53479728 25.5557229 154 29 C149.45311031 35.14641517 144.71072631 41.09526872 139.85546875 47 C136.10948085 51.57743629 132.51896458 56.24632119 129 61 C124.40061948 67.21136983 119.61362163 73.23590534 114.71484375 79.21313477 C108.46273912 86.85116007 102.48080215 94.6872804 96.5625 102.5859375 C95.97210938 103.36912354 95.38171875 104.15230957 94.7734375 104.95922852 C93.60650758 106.50769183 92.44488829 108.06017401 91.2890625 109.61694336 C90.76054687 110.31698486 90.23203125 111.01702637 89.6875 111.73828125 C89.21699219 112.36774658 88.74648438 112.99721191 88.26171875 113.64575195 C87.84535156 114.09265381 87.42898438 114.53955566 87 115 C86.34 115 85.68 115 85 115 C83.62084324 113.34501189 82.32349612 111.62169626 81.0625 109.875 C80.25019509 108.76452827 79.43632773 107.65519818 78.62109375 106.546875 C77.97889893 105.67192383 77.97889893 105.67192383 77.32373047 104.77929688 C75.14551961 101.85144724 72.887353 98.98803838 70.625 96.125 C70.16931641 95.54741943 69.71363281 94.96983887 69.24414062 94.37475586 C68.30912911 93.1901355 67.37374171 92.00581173 66.43798828 90.82177734 C63.51830318 87.12284861 60.61248866 83.41299759 57.70361328 79.70556641 C55.15208746 76.45668132 52.58078419 73.22598024 50 70 C49.67 99.7 49.34 129.4 49 160 C32.83 160 16.66 160 0 160 C0 107.2 0 54.4 0 0 Z " fill="#FDFDFD" transform="translate(276,176)"/>
<path d="M0 0 C0.66 0 1.32 0 2 0 C2 46.53 2 93.06 2 141 C-14.17 141 -30.34 141 -47 141 C-47.48130571 121.63635816 -47.48130571 121.63635816 -47.5859375 113.29492188 C-47.6573073 107.63231174 -47.74112499 101.97205918 -47.90527344 96.3112793 C-48.03698357 91.73983324 -48.10767522 87.17091796 -48.13852692 82.59771919 C-48.16047001 80.86528271 -48.20331877 79.13296376 -48.26876068 77.40162468 C-48.67739638 66.12821866 -47.14216365 59.34368149 -39.52500534 50.77651119 C-38.49209078 49.66758218 -37.4498352 48.56725482 -36.39691639 47.4773016 C-34.57275071 45.54816475 -32.98254555 43.47771771 -31.40625 41.34375 C-30.92003174 40.70219971 -30.43381348 40.06064941 -29.93286133 39.3996582 C-29.46001709 38.772771 -28.98717285 38.14588379 -28.5 37.5 C-23.87896484 31.40873076 -19.1477207 25.42300841 -14.33056641 19.48608398 C-10.36272812 14.55383134 -6.67527133 9.45136053 -3.12036133 4.21411133 C-2.12715455 2.77585421 -1.06939643 1.38254638 0 0 Z " fill="#FCFCFC" transform="translate(447,195)"/>
<path d="M0 0 C5.62811791 5.62811791 5.62811791 5.62811791 7.76171875 8.3125 C8.23552979 8.90619385 8.70934082 9.4998877 9.19750977 10.11157227 C9.68920654 10.73475342 10.18090332 11.35793457 10.6875 12 C11.21077881 12.65863037 11.73405762 13.31726074 12.27319336 13.99584961 C15.98892625 18.68546183 19.65311699 23.41346566 23.28881836 28.1652832 C26.24626285 32.0297321 29.23834069 35.86517697 32.25 39.6875 C37.139019 45.8952214 42.01419069 52.11374387 46.84277344 58.36865234 C49.57607435 61.90734159 52.32711326 65.41904245 55.18359375 68.859375 C55.6623999 69.44710693 56.14120605 70.03483887 56.63452148 70.64038086 C57.91110837 72.20364629 59.20494252 73.75278286 60.5 75.30078125 C62 78 62 78 61.6171875 80.3984375 C59.40160051 83.96264266 56.82980219 87.10986704 54.125 90.3125 C49.57946363 95.79356603 45.1722908 101.33779442 40.9375 107.0625 C36.53532837 113.00122395 32.00172308 118.81036338 27.36132812 124.56445312 C24.16923482 128.5263304 21.02897153 132.52165469 17.9375 136.5625 C14.30485275 141.30201546 10.66726086 146.03718735 7 150.75 C6.53070068 151.3591626 6.06140137 151.9683252 5.57788086 152.59594727 C2.22918261 156.8854087 2.22918261 156.8854087 0 158 C0 105.86 0 53.72 0 0 Z " fill="#FD0000" transform="translate(64,177)"/>
<path d="M0 0 C0.33 0 0.66 0 1 0 C1 51.48 1 102.96 1 156 C-4.61970083 151.50423933 -4.61970083 151.50423933 -6.69140625 148.63671875 C-7.15474365 148.00515869 -7.61808105 147.37359863 -8.09545898 146.72290039 C-8.57958252 146.05121826 -9.06370605 145.37953613 -9.5625 144.6875 C-13.58027426 139.21936468 -17.66815029 133.8367356 -21.9375 128.5625 C-26.21167195 123.27176824 -30.38558625 117.91589324 -34.5 112.5 C-38.72316644 106.94306897 -43.00486295 101.44216152 -47.375 96 C-47.86959717 95.3807666 -48.36419434 94.7615332 -48.8737793 94.12353516 C-50.9987692 91.46738769 -53.13887289 88.8363201 -55.33984375 86.2421875 C-55.99082031 85.46101563 -56.64179688 84.67984375 -57.3125 83.875 C-58.14201172 82.91207031 -58.14201172 82.91207031 -58.98828125 81.9296875 C-60 80 -60 80 -60.0078125 77.6953125 C-58.5685525 73.84612877 -56.19218652 71.12038393 -53.5625 68 C-52.45599226 66.6531967 -51.35053875 65.30552662 -50.24609375 63.95703125 C-49.69421387 63.28752441 -49.14233398 62.61801758 -48.57373047 61.92822266 C-46.36604837 59.22324698 -44.2441853 56.46253965 -42.125 53.6875 C-41.31412019 52.62736078 -40.50291141 51.56747312 -39.69140625 50.5078125 C-39.26617676 49.95254883 -38.84094727 49.39728516 -38.40283203 48.82519531 C-30.13697367 38.07066048 -21.761871 27.39948939 -13.37060547 16.74267578 C-11.88171354 14.84960301 -10.39570051 12.95429451 -8.91015625 11.05859375 C-8.40250732 10.41116211 -7.8948584 9.76373047 -7.37182617 9.09667969 C-6.39363744 7.8490144 -5.41591545 6.60098301 -4.4387207 5.35253906 C-1.11222522 1.11222522 -1.11222522 1.11222522 0 0 Z " fill="#000000" transform="translate(274,178)"/>
<path d="M0 0 C7.5743505 -0.43458058 15.14545234 -0.73009472 22.72949219 -0.93383789 C25.30265329 -1.0188251 27.87500552 -1.13447437 30.4453125 -1.2824707 C51.17973447 -2.44556231 51.17973447 -2.44556231 57.51132202 1.6076355 C61.74142766 5.46883487 64.81392783 9.92129513 67.69450378 14.84190369 C69.7100911 18.17384101 72.13379945 21.15187816 74.5625 24.1875 C75.67818359 25.66283203 75.67818359 25.66283203 76.81640625 27.16796875 C79.1391148 30.18042617 81.54854582 33.09186016 84 36 C82.44856264 41.03012609 79.39912745 44.43057826 76.0625 48.375 C70.91588639 54.54920686 66.06874028 60.85195191 61.51586914 67.47802734 C60.41432313 69.03754792 59.21480769 70.52699276 58 72 C55 72 55 72 53.67236328 70.69335938 C53.22618652 70.08298828 52.78000977 69.47261719 52.3203125 68.84375 C51.81024658 68.15893555 51.30018066 67.47412109 50.7746582 66.76855469 C50.230271 66.01993164 49.68588379 65.27130859 49.125 64.5 C47.95658663 62.93068149 46.78595591 61.36301181 45.61328125 59.796875 C45.01467285 58.99572266 44.41606445 58.19457031 43.79931641 57.36914062 C41.05673896 53.75801829 38.1921536 50.25211897 35.3125 46.75 C30.58900664 40.98542735 25.99047701 35.14641225 21.46875 29.22265625 C18.80052043 25.72921213 16.09148807 22.26848946 13.375 18.8125 C12.91746338 18.22936035 12.45992676 17.6462207 11.98852539 17.04541016 C8.50359501 12.61368507 4.95416207 8.23710199 1.36328125 3.890625 C0 2 0 2 0 0 Z " fill="#FDFDFD" transform="translate(96,176)"/>
</svg>
